<?xml version="1.0" standalone="no"?>
<!DOCTYPE svg PUBLIC "-//W3C//DTD SVG 20010904//EN"
 "http://www.w3.org/TR/2001/REC-SVG-20010904/DTD/svg10.dtd">
<svg version="1.0" xmlns="http://www.w3.org/2000/svg"
 width="1060.000000pt" height="1408.000000pt" viewBox="0 0 1060.000000 1408.000000"
 preserveAspectRatio="xMidYMid meet">

<g transform="translate(0.000000,1408.000000) scale(0.100000,-0.100000)"
fill="#ef4444" stroke="none">
<path d="M6089 13040 c-114 -20 -203 -97 -259 -224 -32 -72 -34 -74 -59 -64
-39 16 -187 13 -264 -6 -95 -22 -174 -63 -230 -118 -37 -37 -65 -84 -130 -220
-46 -95 -118 -225 -160 -289 -147 -225 -172 -301 -143 -444 9 -44 29 -129 45
-190 25 -93 30 -129 31 -231 0 -66 -5 -147 -11 -180 -14 -73 -17 -234 -6 -335
l8 -76 -37 -8 c-64 -12 -137 -43 -177 -76 -21 -17 -64 -70 -96 -118 -66 -96
-97 -128 -224 -225 -103 -79 -125 -110 -167 -231 -35 -99 -77 -172 -120 -209
-22 -18 -49 -26 -120 -35 -157 -20 -236 -61 -383 -200 -114 -107 -146 -126
-262 -157 -131 -34 -215 -74 -354 -167 -62 -43 -120 -77 -128 -77 -30 0 -134
-64 -174 -107 -85 -92 -99 -148 -119 -488 -9 -149 -50 -489 -65 -545 -17 -60
-37 -303 -37 -445 0 -177 11 -269 57 -495 45 -220 73 -399 95 -615 36 -348 81
-533 183 -756 l35 -77 -45 -43 c-104 -101 -186 -247 -229 -406 -24 -87 -27
-117 -27 -258 -1 -333 89 -643 443 -1530 l52 -130 -16 -95 c-29 -177 -37 -294
-37 -570 0 -286 11 -436 37 -498 8 -20 32 -55 54 -77 24 -25 45 -61 56 -94 24
-75 73 -127 137 -146 152 -45 426 12 713 149 133 64 184 107 215 181 13 30 26
55 30 55 4 0 58 -20 121 -44 119 -46 310 -109 365 -121 23 -5 43 -20 68 -55
52 -71 119 -126 184 -152 47 -19 74 -22 176 -22 103 0 129 4 185 25 94 36 167
88 297 212 102 97 207 183 254 207 12 7 30 -9 82 -75 84 -105 296 -335 309
-335 6 0 49 31 97 69 131 104 471 331 497 331 19 0 158 -117 240 -202 196
-203 284 -395 271 -594 -6 -111 -44 -192 -129 -281 -72 -74 -138 -116 -265
-167 -289 -115 -629 -132 -1267 -60 -241 27 -263 30 -791 109 -1100 165 -1211
177 -1610 177 -433 1 -755 -45 -1380 -193 -774 -184 -970 -215 -1282 -206
-302 8 -461 76 -539 229 -37 70 -45 202 -19 310 22 94 100 254 167 343 178
236 473 429 771 505 110 27 282 50 387 50 91 0 117 10 79 31 -33 17 -249 3
-395 -26 -222 -45 -415 -130 -594 -264 -265 -198 -419 -429 -467 -695 -16 -90
-15 -99 1 -167 35 -147 95 -224 220 -284 121 -58 199 -70 451 -70 304 0 483
28 995 151 611 147 1010 220 1335 244 407 29 766 -2 1750 -155 786 -122 1088
-155 1490 -162 319 -6 406 2 579 52 354 103 532 273 552 530 7 85 -20 221 -64
317 -64 142 -206 316 -363 444 -38 31 -69 59 -69 63 0 4 37 27 83 51 45 24 99
54 119 67 21 13 40 23 42 23 2 0 24 -28 49 -62 54 -76 146 -165 207 -201 163
-94 438 -154 670 -145 199 8 308 57 447 201 114 117 142 189 150 387 4 102 1
153 -11 209 -30 143 -104 259 -201 315 -26 16 -55 45 -73 75 l-31 49 26 78
c35 107 36 229 3 329 -50 152 -103 246 -188 337 -36 39 -48 62 -71 142 l-28
94 105 224 c287 616 332 746 338 988 2 99 7 135 23 171 25 57 81 270 81 310 0
19 -12 42 -34 67 -21 23 -47 71 -65 121 -51 141 -90 175 -236 214 -49 13 -92
30 -96 38 -4 8 -28 59 -52 114 -38 84 -46 113 -51 185 -3 47 -17 139 -31 205
-21 99 -25 135 -19 205 4 62 0 126 -15 235 -17 119 -20 192 -19 350 3 225 4
220 -96 441 -62 136 -77 210 -75 392 1 85 -4 166 -11 192 -6 25 -41 104 -76
175 -73 148 -83 192 -83 359 0 86 -4 125 -19 167 -51 146 -153 238 -262 239
-31 0 -100 21 -220 66 -96 36 -273 99 -392 139 -120 41 -224 78 -233 82 -13 8
-10 13 14 31 47 34 80 100 88 172 8 85 32 110 103 110 124 0 176 73 136 188
-24 68 -29 129 -16 210 10 59 10 94 1 150 -10 66 -9 78 8 118 18 39 29 49 86
76 80 37 93 58 77 126 -5 26 -9 48 -8 50 2 1 15 -2 30 -8 66 -25 145 -2 207
61 38 37 49 57 59 102 12 53 16 58 71 92 69 43 99 86 99 146 0 42 -3 47 -91
131 -102 98 -123 137 -107 196 14 50 37 82 59 82 40 0 100 109 107 195 8 107
-34 161 -162 205 -47 16 -76 36 -145 102 -47 46 -111 96 -141 112 -30 16 -64
36 -75 45 -11 10 -58 39 -105 67 -61 36 -122 85 -225 185 -77 74 -162 148
-188 163 -94 55 -239 83 -338 66z m226 -50 c94 -32 143 -67 270 -190 135 -130
176 -163 255 -209 l55 -31 -45 2 c-59 4 -69 -15 -10 -20 99 -7 195 -55 295
-147 68 -63 69 -64 36 -58 -26 5 -33 3 -29 -8 3 -8 42 -23 91 -36 138 -35 207
-82 207 -139 0 -27 -3 -28 -33 -12 -12 6 -69 15 -127 19 -128 8 -168 18 -244
64 -33 19 -61 33 -64 30 -11 -10 34 -47 94 -76 51 -25 81 -32 170 -40 147 -12
168 -16 189 -39 16 -17 17 -25 7 -59 -7 -21 -29 -57 -50 -81 l-37 -42 -47 65
c-53 72 -74 92 -82 79 -3 -5 13 -30 35 -57 62 -75 64 -80 40 -135 -43 -99 -20
-163 89 -255 108 -89 121 -143 53 -211 -43 -43 -58 -43 -60 2 -2 48 -70 160
-92 153 -6 -2 5 -29 26 -59 46 -69 59 -148 24 -157 -17 -4 -21 -13 -21 -45 0
-51 -30 -108 -77 -147 -21 -17 -41 -31 -45 -31 -4 0 5 26 19 58 20 45 24 69
21 112 -4 56 -4 56 -96 183 -13 18 -29 51 -35 75 -6 23 -15 42 -20 42 -17 0
-162 -71 -193 -95 -21 -16 -47 -54 -68 -99 -38 -79 -64 -106 -150 -156 -74
-42 -106 -81 -105 -128 l1 -37 15 35 c20 46 46 74 107 112 28 17 61 41 73 51
13 11 26 18 29 14 12 -12 -18 -106 -44 -140 -26 -34 -171 -163 -175 -156 -1 2
-13 35 -26 72 -27 80 -24 133 11 205 39 78 119 141 409 322 115 72 159 159
120 243 -28 61 -52 85 -188 186 -125 93 -166 136 -178 184 -8 32 -25 36 -25 7
0 -53 66 -124 221 -238 115 -83 150 -125 157 -187 6 -60 -28 -110 -117 -168
-36 -25 -119 -79 -184 -122 -129 -84 -212 -160 -243 -221 -14 -29 -19 -60 -19
-119 0 -69 4 -87 28 -129 24 -44 26 -53 16 -83 -6 -18 -15 -33 -21 -33 -6 0
-30 19 -53 43 -49 49 -68 102 -85 239 -13 108 -43 229 -66 264 -10 14 -36 34
-58 44 l-41 17 55 16 c30 9 102 23 160 33 58 9 114 21 125 27 10 5 41 9 68 8
115 -4 193 111 141 210 -8 16 -48 66 -88 110 -84 90 -106 130 -106 186 0 45
19 154 30 166 3 4 28 0 56 -8 27 -8 61 -15 76 -15 18 0 29 -7 33 -20 13 -42
119 -140 236 -221 149 -102 170 -127 176 -214 7 -77 23 -77 23 1 0 98 -33 138
-202 246 -96 61 -160 118 -198 177 -29 45 -35 48 -92 59 -34 6 -85 23 -112 37
-52 25 -142 103 -132 112 12 12 153 15 192 4 22 -6 60 -26 84 -43 24 -18 49
-37 56 -43 24 -17 28 5 5 29 -33 35 -129 83 -181 91 -26 4 -85 0 -142 -9 -129
-21 -187 -20 -250 4 -52 20 -128 83 -128 107 0 7 -4 13 -10 13 -5 0 -10 -9
-10 -20 0 -31 56 -87 117 -116 47 -23 68 -27 148 -28 l94 -1 35 -41 c18 -22
50 -48 70 -59 42 -23 41 -21 20 -71 -10 -23 -17 -70 -17 -114 -2 -94 13 -125
115 -235 79 -86 104 -130 94 -168 -9 -38 -46 -78 -90 -98 -62 -28 -72 -24 -42
16 49 63 73 153 46 170 -6 4 -10 -6 -10 -22 0 -42 -47 -130 -84 -158 -23 -17
-58 -29 -126 -40 -182 -30 -296 -72 -352 -132 -118 -125 -139 -431 -43 -624
13 -25 30 -51 39 -58 21 -18 55 -4 68 27 14 35 13 191 -1 266 -17 92 -14 180
7 204 9 12 46 37 81 57 49 27 66 33 73 23 4 -7 8 -16 8 -19 1 -37 44 -286 56
-322 18 -54 66 -107 123 -137 40 -20 51 -18 51 9 0 38 44 100 110 155 88 72
115 113 131 196 31 173 54 212 150 261 32 16 61 29 65 29 11 0 -4 -215 -21
-312 -14 -80 -14 -93 0 -149 9 -34 14 -68 11 -76 -3 -7 -25 -22 -49 -32 -110
-47 -146 -113 -127 -233 8 -52 7 -91 -2 -153 -11 -78 -10 -93 11 -189 22 -100
23 -107 7 -131 -20 -31 -54 -45 -107 -45 -41 0 -102 -20 -113 -38 -3 -5 -10
-42 -16 -81 -12 -89 -27 -118 -84 -168 l-45 -40 -172 52 -173 52 -41 99 c-23
54 -59 127 -79 161 -124 210 -372 365 -670 418 -77 14 -132 17 -257 13 -149
-5 -159 -4 -159 13 0 25 29 51 129 117 147 97 290 131 546 132 173 0 273 38
310 116 27 56 17 115 -37 209 -63 111 -88 184 -88 255 0 66 -14 88 -24 37 -12
-65 20 -176 83 -292 68 -122 72 -176 19 -232 -46 -49 -117 -65 -333 -74 -133
-5 -222 -13 -265 -25 -64 -16 -182 -71 -249 -116 l-35 -22 30 53 c39 71 106
146 161 178 63 37 148 41 286 14 185 -36 279 -24 312 40 27 51 18 108 -44 279
-37 102 -39 166 -10 253 43 129 123 200 262 236 145 37 189 69 223 157 13 33
14 48 6 56 -12 12 -15 8 -27 -46 -11 -53 -72 -102 -155 -126 -170 -50 -173
-51 -236 -114 -80 -81 -117 -167 -117 -276 0 -63 6 -93 40 -185 66 -178 64
-221 -7 -258 -42 -22 -101 -19 -271 14 -129 24 -175 21 -258 -17 -77 -35 -142
-108 -197 -218 -33 -68 -44 -84 -44 -64 0 51 60 215 100 275 59 89 109 120
270 167 30 9 69 25 87 36 58 35 133 158 186 307 61 170 129 265 216 300 158
65 239 122 268 191 18 42 19 123 3 163 -15 34 -35 40 -23 7 4 -13 8 -53 8 -90
0 -59 -3 -70 -31 -105 -37 -45 -112 -93 -205 -128 -122 -47 -174 -111 -254
-314 -65 -167 -120 -261 -178 -305 -18 -14 -67 -34 -111 -46 -95 -25 -144 -50
-196 -96 -56 -51 -98 -122 -130 -220 -22 -70 -29 -81 -34 -61 -7 28 10 218 25
286 13 61 91 254 144 361 51 101 79 191 100 320 38 233 47 275 75 329 34 69
93 124 167 158 64 29 146 53 186 53 18 0 27 5 27 16 0 14 -8 15 -47 9 -115
-17 -255 -84 -309 -148 -54 -63 -82 -144 -104 -292 -28 -190 -55 -294 -102
-395 -62 -132 -118 -262 -118 -277 0 -7 -4 -13 -10 -13 -21 0 -10 81 17 128
34 58 35 121 4 237 -12 44 -25 112 -28 150 -7 94 14 147 140 338 169 258 272
374 379 426 98 48 161 54 285 26 26 -6 34 -4 39 9 9 24 -19 50 -79 76 -114 50
-261 5 -388 -119 -53 -51 -86 -97 -148 -206 -44 -78 -114 -194 -155 -259 -108
-169 -120 -223 -86 -381 42 -198 45 -220 31 -254 -8 -17 -16 -31 -20 -31 -3 0
-14 33 -24 73 -9 39 -26 106 -38 147 -11 43 -20 106 -20 146 0 90 25 150 141
330 46 71 120 206 166 300 88 182 124 228 215 274 127 65 332 83 406 35 19
-13 22 -12 28 13 12 47 71 166 99 199 15 17 54 46 88 62 55 28 71 31 153 31
66 0 108 -6 150 -20z m-587 -372 c23 -11 42 -23 42 -28 0 -4 -19 -1 -42 7 -29
10 -67 14 -116 10 -120 -7 -240 -78 -340 -202 -48 -59 -39 -26 12 42 73 100
168 165 276 189 65 15 109 10 168 -18z m1429 -1222 c62 -73 65 -161 7 -248
-20 -32 -30 -38 -60 -38 -29 0 -65 11 -82 25 -1 1 8 58 22 126 13 68 27 150
31 182 l7 58 21 -33 c11 -18 35 -51 54 -72z m-880 64 c20 -18 39 -57 31 -65
-1 -2 -34 -21 -72 -42 -109 -62 -119 -93 -91 -279 8 -54 15 -121 15 -149 0
-62 -17 -128 -32 -123 -17 6 -65 107 -83 173 -44 172 9 417 105 483 42 28 99
29 127 2z m-934 -825 c289 -50 532 -200 653 -402 50 -84 116 -233 103 -233 -5
0 -90 20 -187 44 -329 83 -533 115 -767 123 -203 6 -329 -7 -567 -57 -219 -46
-277 -66 -317 -108 -30 -32 -33 -34 -26 -12 31 103 67 149 208 259 56 44 119
102 139 129 37 48 39 49 135 71 267 60 445 74 583 47 205 -42 422 -164 530
-299 21 -26 41 -43 45 -38 10 17 -9 42 -87 117 -184 177 -451 276 -698 260
-105 -7 -231 -27 -360 -55 -47 -11 -87 -17 -89 -15 -2 1 11 21 29 44 34 43 91
80 155 100 118 38 374 50 518 25z m-442 -596 c-83 -157 -99 -247 -81 -438 l11
-126 -44 -181 -45 -181 14 -69 c12 -54 14 -112 9 -269 -6 -180 -4 -220 19
-405 32 -250 42 -405 57 -890 13 -434 15 -449 125 -825 108 -373 152 -570 258
-1161 32 -176 62 -306 101 -435 105 -346 147 -574 175 -949 38 -509 40 -522
106 -690 29 -77 54 -153 54 -168 0 -15 -9 -52 -19 -82 -28 -80 -58 -203 -72
-297 -14 -96 7 -92 -179 -36 -125 37 -268 95 -358 145 -100 55 -97 42 -46 186
175 492 233 804 221 1202 -11 377 -86 680 -252 1009 -131 262 -311 517 -637
901 -95 113 -207 245 -247 293 l-75 89 18 66 c61 223 79 377 79 667 0 234 -7
342 -53 776 -74 706 -27 1083 172 1384 67 100 163 209 250 282 206 173 350
282 381 288 32 5 100 11 105 9 1 0 -20 -43 -47 -95z m360 91 c489 -49 1243
-259 2011 -561 l128 -50 -14 -27 c-26 -51 -85 -247 -106 -351 -32 -159 -68
-418 -85 -606 -53 -587 -64 -648 -150 -842 -22 -51 -41 -80 -55 -85 -12 -4
-114 -19 -226 -33 -214 -26 -335 -50 -444 -86 -111 -36 -220 -99 -220 -126 0
-18 7 -16 44 12 47 36 153 81 243 105 72 18 83 19 134 6 105 -28 244 -47 361
-51 122 -4 145 -10 191 -53 43 -41 37 -83 -22 -168 -117 -166 -200 -209 -520
-269 -242 -46 -371 -93 -516 -190 -86 -57 -111 -80 -98 -88 5 -3 45 19 88 49
159 110 269 151 549 205 191 36 295 68 359 108 26 17 47 28 47 24 0 -3 -47
-54 -104 -113 -117 -120 -126 -139 -102 -221 44 -146 -14 -388 -124 -526 -86
-109 -88 -134 -25 -398 14 -57 29 -166 35 -255 11 -148 15 -163 70 -330 150
-449 143 -661 -33 -1080 -50 -118 -71 -246 -63 -380 12 -204 68 -393 163 -551
37 -62 76 -149 120 -273 36 -99 88 -232 115 -294 28 -62 48 -115 45 -118 -7
-7 -250 -76 -347 -99 l-75 -18 -120 61 c-143 71 -356 156 -517 207 -82 25
-121 42 -128 56 -6 10 -29 79 -51 152 -96 312 -141 449 -189 567 -60 149 -70
209 -101 625 -31 431 -70 646 -189 1040 -31 104 -64 251 -95 420 -101 563
-161 835 -231 1056 -54 174 -121 444 -133 539 -6 47 -15 272 -21 500 -10 379
-25 592 -50 740 -25 150 -32 297 -21 430 10 115 10 147 -4 234 l-17 101 42
165 c43 164 43 165 35 280 -12 170 -10 221 15 302 22 73 77 191 112 241 18 26
23 27 103 27 45 0 129 -5 186 -10z m-531 -24 c0 -2 -73 -62 -162 -134 -298
-237 -419 -393 -512 -661 -20 -57 -46 -158 -59 -225 -19 -107 -22 -152 -21
-396 0 -276 3 -319 66 -905 19 -173 16 -647 -5 -775 -20 -120 -67 -320 -76
-320 -3 1 -24 24 -47 53 -260 331 -531 931 -618 1372 -59 298 -24 654 87 888
87 184 187 302 417 491 280 230 355 302 466 445 59 77 72 83 294 136 146 34
170 38 170 31z m-725 -386 c-3 -5 -87 -75 -186 -155 -215 -175 -276 -233 -358
-344 -222 -300 -289 -751 -181 -1216 92 -395 342 -944 565 -1239 33 -44 68
-90 78 -102 18 -23 18 -25 -21 -111 -159 -353 -203 -828 -128 -1363 32 -223
104 -514 201 -805 110 -332 236 -602 392 -839 69 -106 111 -156 222 -266 75
-75 173 -164 218 -199 l81 -63 -35 -97 c-75 -209 -143 -484 -159 -650 l-7 -73
-66 6 c-103 11 -205 34 -281 65 -121 50 -116 42 -123 178 -7 123 -31 232 -68
306 -12 22 -54 75 -94 117 -61 64 -83 98 -139 210 -106 215 -120 300 -136 838
-12 392 -28 707 -41 796 -5 37 -25 131 -44 208 -38 154 -57 271 -80 488 -20
194 -41 274 -134 523 -43 117 -103 280 -131 362 -30 85 -82 207 -121 281 -131
250 -186 423 -176 563 2 42 8 84 12 93 5 13 -4 21 -38 36 -24 11 -63 36 -85
56 -70 64 -127 228 -182 521 -17 88 -43 219 -60 290 -126 560 -20 887 368
1127 87 54 151 81 266 110 112 27 139 44 271 162 122 109 197 156 286 180 63
17 123 20 114 6z m3476 -196 c60 -30 138 -151 154 -238 3 -22 6 -86 6 -141 -1
-143 10 -191 83 -345 35 -74 67 -144 72 -155 4 -11 10 -112 14 -225 8 -221 18
-265 90 -410 15 -30 40 -89 56 -130 28 -75 28 -76 26 -278 -2 -162 2 -232 19
-355 24 -173 21 -230 -17 -321 -76 -182 -76 -185 -85 -336 -5 -80 -20 -203
-34 -275 -28 -143 -31 -175 -15 -159 19 19 71 317 79 454 8 120 12 144 42 213
18 42 36 77 40 77 13 0 59 -254 59 -326 0 -38 10 -70 40 -132 65 -135 75 -179
74 -332 -1 -117 -5 -147 -28 -225 -57 -186 -156 -347 -298 -481 -133 -126
-254 -166 -372 -125 -100 35 -117 55 -205 230 l-79 159 20 67 c26 83 18 125
-45 260 -40 86 -42 94 -42 185 1 85 4 104 34 175 46 109 44 143 -15 290 l-48
120 -1 225 c-2 173 1 237 13 276 20 69 10 116 -31 148 l-31 25 18 50 c25 71
14 86 -18 23 -44 -86 -64 -40 -27 61 11 28 37 95 59 148 70 168 88 262 122
649 45 516 94 814 170 1022 16 45 37 92 46 105 14 23 14 26 -3 39 -17 14 -16
15 7 8 14 -3 37 -13 51 -20z m-4698 -461 c-54 -67 -113 -188 -139 -288 -15
-57 -19 -105 -18 -255 0 -170 3 -197 33 -335 17 -82 49 -238 70 -345 47 -239
59 -278 129 -455 l55 -140 8 -150 c11 -232 48 -314 211 -475 110 -108 111
-109 203 -373 35 -100 92 -261 128 -357 77 -205 104 -303 113 -406 l7 -75 -39
-40 c-43 -44 -84 -59 -164 -59 -64 0 -104 17 -108 46 -1 11 9 41 23 68 24 45
25 66 5 66 -5 0 -23 -30 -41 -66 -31 -62 -32 -68 -18 -93 22 -38 62 -53 144
-53 75 0 147 22 174 55 21 27 28 12 21 -48 -6 -51 -11 -60 -66 -116 -74 -77
-138 -119 -179 -119 -65 0 -130 67 -162 167 -14 44 -26 61 -70 95 -91 70 -210
242 -298 433 -102 218 -127 333 -191 865 -14 118 -41 294 -60 390 -91 454 -97
673 -30 1060 27 155 45 313 56 500 19 325 29 369 109 462 33 38 114 98 133 98
5 0 -13 -26 -39 -57z m4207 -1497 c0 -7 -3 -35 -7 -61 l-6 -48 -121 6 c-142 7
-328 38 -314 52 3 3 96 16 209 31 112 14 205 27 208 30 10 9 31 3 31 -10z
m-3964 -402 c-7 -48 -6 -87 3 -142 14 -83 69 -248 107 -324 47 -93 21 -82 -66
27 -92 117 -120 197 -120 355 0 97 -6 140 -24 197 -6 20 -2 19 52 -13 l58 -35
-10 -65z m4050 -199 c-4 -91 -1 -176 8 -245 14 -117 10 -185 -24 -348 -62
-306 -37 -422 190 -872 112 -221 205 -363 297 -451 37 -36 104 -100 149 -142
44 -43 87 -88 94 -102 12 -22 11 -26 -11 -44 -34 -28 -43 -26 -73 18 -15 22
-36 47 -47 57 -37 33 -29 6 15 -54 113 -153 201 -315 273 -502 47 -122 63
-150 63 -110 0 52 -136 359 -214 480 l-35 55 26 28 c15 15 30 27 33 27 16 0
124 -249 174 -400 70 -211 106 -330 99 -330 -2 0 -33 20 -67 45 -108 77 -216
121 -371 154 -155 32 -227 58 -293 109 -52 40 -68 35 -26 -9 48 -51 155 -95
297 -123 147 -29 218 -56 329 -123 156 -94 147 -78 178 -311 29 -215 78 -378
174 -571 19 -39 32 -71 28 -71 -4 0 -29 7 -56 15 -62 19 -212 38 -237 30 -36
-12 -10 -22 73 -28 46 -3 117 -16 158 -27 249 -70 350 -220 350 -520 0 -209
-34 -297 -165 -426 -133 -132 -243 -174 -454 -174 -224 1 -486 66 -626 155
-166 107 -318 369 -479 828 -27 79 -66 165 -100 220 -105 176 -154 338 -163
543 -7 169 4 232 77 419 102 263 125 373 118 559 -2 64 -3 115 -2 113 1 -1 36
-54 79 -117 42 -63 121 -171 174 -240 191 -246 260 -363 302 -512 19 -70 23
-106 23 -228 0 -164 -13 -240 -74 -449 -57 -196 -71 -283 -72 -451 0 -108 6
-170 20 -240 22 -100 74 -255 97 -286 29 -40 25 -2 -9 83 -64 161 -80 246 -80
438 0 187 8 243 70 452 57 194 74 299 74 452 0 210 -34 326 -153 516 -31 50
-79 119 -107 154 -87 107 -229 301 -295 401 -52 80 -66 110 -85 190 -13 52
-45 159 -72 238 -45 132 -50 153 -59 290 -7 101 -21 193 -45 295 -35 152 -42
243 -22 280 6 12 29 44 50 71 75 95 117 206 137 361 10 77 10 102 -4 168 -9
43 -13 88 -9 100 4 12 50 67 104 122 84 86 178 215 181 249 1 6 5 -7 11 -29 5
-23 7 -100 4 -180z m-3034 -422 c34 -43 126 -152 203 -243 365 -428 538 -666
675 -935 269 -525 324 -1112 166 -1750 -47 -188 -169 -545 -186 -545 -19 0
-173 132 -290 250 -131 131 -200 223 -309 412 -237 413 -443 1070 -512 1633
-19 150 -16 515 4 655 20 134 64 315 101 414 29 76 77 186 82 186 1 0 31 -35
66 -77z m3117 8 c18 -56 13 -105 -21 -188 -30 -72 -33 -86 -32 -183 0 -103 1
-107 49 -215 50 -114 62 -187 37 -231 -9 -17 -15 -11 -41 48 -40 88 -77 216
-85 298 -8 72 4 190 34 345 11 55 22 117 25 139 7 42 16 39 34 -13z m1146
-303 c107 -27 148 -68 200 -201 22 -58 47 -105 65 -122 17 -16 30 -38 30 -49
0 -45 -54 -235 -88 -306 -28 -60 -52 -92 -124 -162 -54 -52 -85 -89 -78 -93
16 -10 170 121 170 145 0 6 5 10 12 10 16 0 4 -159 -21 -275 -30 -138 -84
-280 -216 -560 -95 -203 -109 -232 -146 -315 -22 -49 -40 -78 -43 -70 -3 8
-23 67 -45 130 -73 215 -133 343 -210 451 l-48 65 40 60 c102 148 112 159 199
207 107 61 224 148 311 234 98 96 152 179 183 282 16 54 19 165 4 141 -5 -8
-10 -26 -10 -40 0 -52 -32 -147 -70 -210 -53 -88 -122 -163 -217 -238 -78 -61
-235 -164 -241 -157 -8 7 156 213 262 330 126 138 158 180 204 270 31 62 62
155 62 187 0 33 -18 19 -25 -19 -12 -65 -64 -179 -115 -250 -27 -37 -97 -120
-155 -183 -97 -105 -259 -315 -394 -512 -30 -43 -56 -78 -58 -78 -3 0 -50 38
-103 85 -58 50 -126 121 -164 172 -36 48 -64 88 -62 90 1 2 23 -4 47 -13 25
-10 76 -17 119 -18 62 -1 85 4 132 26 120 56 232 161 333 313 124 185 184 397
172 600 l-5 95 26 -6 c15 -3 45 -11 67 -16z m-5417 -728 c56 -96 127 -185 190
-237 37 -32 55 -55 67 -92 20 -62 66 -126 108 -151 36 -22 116 -27 135 -8 21
21 14 4 -33 -78 -97 -169 -188 -456 -229 -720 -9 -56 -16 -122 -16 -148 0 -43
2 -46 26 -46 21 0 25 -3 19 -17 -4 -10 -14 -37 -22 -61 -9 -24 -19 -40 -23
-35 -14 15 -118 288 -160 418 -48 154 -109 389 -145 570 -21 103 -26 153 -24
245 2 119 -10 157 -24 73 -19 -115 19 -356 107 -683 25 -90 43 -166 41 -168
-8 -8 -98 117 -129 178 -41 80 -68 162 -101 305 -32 136 -54 205 -66 205 -12
0 -11 -7 1 -50 6 -19 26 -100 44 -180 52 -224 109 -344 221 -467 49 -54 62
-78 99 -180 24 -65 61 -161 82 -213 34 -80 39 -101 33 -135 -5 -22 -13 -107
-18 -190 -10 -140 -34 -312 -46 -323 -2 -3 -8 4 -11 14 -4 10 -31 80 -60 154
-267 684 -355 956 -395 1215 -21 135 -16 335 10 440 33 131 107 276 189 368
37 41 71 74 77 73 5 -1 29 -35 53 -76z m732 -392 c7 -46 28 -144 46 -219 46
-189 51 -242 70 -672 l16 -379 -35 -81 c-149 -351 -181 -711 -81 -908 39 -78
73 -117 162 -188 121 -95 162 -164 162 -276 0 -77 -25 -155 -75 -237 -39 -63
-46 -91 -16 -64 30 27 89 147 107 217 19 76 14 148 -15 214 -27 62 -56 95
-152 172 -44 35 -95 86 -114 111 -115 156 -123 416 -24 761 28 97 68 205 74
199 2 -2 6 -52 10 -113 19 -328 38 -415 133 -604 55 -110 81 -149 143 -217
113 -123 146 -208 156 -405 9 -184 -29 -322 -108 -393 -100 -91 -468 -226
-659 -242 -159 -13 -241 27 -282 139 -14 38 -40 81 -69 113 -69 76 -74 112
-74 544 0 384 3 417 60 710 21 105 39 234 45 322 11 169 18 206 59 313 24 60
29 87 24 120 -18 138 140 556 272 719 78 95 81 105 132 394 3 17 9 32 13 32 3
0 12 -37 20 -82z m-90 -86 c-19 -107 -42 -166 -85 -217 l-25 -30 -20 23 c-37
45 -36 84 6 159 32 58 131 179 140 171 1 -2 -6 -49 -16 -106z m-180 -196 c0
-8 11 -28 25 -45 l26 -30 -37 -57 c-83 -129 -173 -365 -198 -519 -23 -140 -25
-145 -21 -60 2 44 13 127 25 185 47 233 180 621 180 526z m4846 -959 c73 -91
146 -257 164 -373 11 -69 0 -170 -24 -227 l-14 -32 -22 50 c-67 150 -104 285
-131 474 -11 80 -22 149 -25 153 -3 4 -2 8 3 8 4 -1 27 -24 49 -53z m-2468
-829 c83 -267 102 -332 98 -335 -4 -4 -228 56 -235 62 -6 7 18 151 41 240 11
44 25 99 31 123 6 23 13 42 17 42 4 0 25 -60 48 -132z m-677 -132 c111 -57
261 -112 442 -162 l57 -15 0 -117 c0 -64 5 -157 11 -207 19 -149 25 -134 -66
-161 -135 -40 -265 -55 -522 -61 l-243 -6 0 42 c0 112 48 324 126 565 54 165
62 186 68 186 1 0 58 -29 127 -64z m761 -247 c35 -9 39 -14 54 -67 26 -90 82
-230 126 -317 22 -44 41 -81 42 -82 1 -2 128 29 281 67 154 39 286 70 295 70
15 0 153 -81 178 -104 10 -10 -15 -30 -125 -100 -76 -48 -201 -134 -278 -191
l-140 -104 -29 27 c-48 46 -243 270 -288 332 -24 33 -48 60 -53 60 -27 0 -173
-111 -296 -227 -186 -174 -252 -213 -410 -236 -64 -9 -87 -8 -143 6 -37 9 -83
24 -104 34 -36 17 -149 120 -140 128 2 3 53 -4 114 -14 145 -26 338 -45 358
-38 10 4 28 33 42 64 48 109 84 188 92 202 4 7 52 27 107 43 55 16 105 34 111
39 8 7 8 24 -3 67 -15 59 -30 359 -20 386 6 15 -3 17 229 -45z m239 -78 c186
-64 227 -80 387 -153 122 -56 155 -78 117 -78 -9 0 -116 -25 -238 -55 -122
-30 -232 -57 -244 -60 -18 -4 -27 7 -66 88 -36 73 -117 284 -117 303 0 9 22 2
161 -45z m1052 -155 l16 -35 -92 -52 c-51 -28 -111 -62 -134 -75 l-42 -24 -43
29 c-24 15 -62 39 -85 52 -24 13 -43 26 -43 29 0 3 53 18 118 34 64 16 149 39
187 52 94 30 99 29 118 -10z m-2815 -185 c77 -39 154 -61 287 -80 l110 -17 9
-57 c4 -32 6 -61 2 -64 -7 -8 -344 103 -428 140 -57 25 -58 27 -58 66 0 23 5
41 10 41 6 0 37 -13 68 -29z m1056 -83 c-4 -13 -27 -69 -52 -125 -31 -70 -50
-103 -61 -103 -69 0 -410 53 -457 70 -24 10 -44 61 -44 116 l0 31 238 7 c130
4 260 11 287 15 90 15 97 14 89 -11z"/>
<path d="M6152 12940 c-149 -23 -284 -157 -308 -307 -8 -50 7 -57 38 -18 36
46 103 77 168 79 43 1 60 5 60 15 0 10 -14 12 -59 9 -33 -2 -58 -1 -55 3 7 12
133 51 186 58 60 7 64 27 5 23 -84 -7 -192 -51 -254 -103 -32 -27 -59 -45 -61
-40 -5 15 46 105 85 151 52 60 146 102 244 108 43 3 107 -1 140 -7 69 -14 84
-9 42 12 -35 18 -161 28 -231 17z"/>
<path d="M5870 12502 c0 -11 120 -88 171 -110 24 -11 93 -29 154 -42 194 -39
219 -58 255 -192 12 -46 37 -119 55 -164 74 -185 58 -216 -180 -336 -77 -39
-162 -86 -188 -105 -70 -50 -69 -33 1 21 136 104 182 188 182 331 0 152 -44
297 -108 362 -48 47 -180 106 -178 78 0 -5 25 -20 55 -32 30 -12 70 -35 90
-51 71 -58 116 -195 116 -357 0 -90 -3 -105 -28 -153 -17 -31 -58 -81 -100
-120 -127 -119 -159 -156 -189 -220 -33 -69 -47 -145 -29 -156 7 -5 11 4 11
27 0 24 14 54 51 108 79 115 94 126 318 239 207 105 248 147 238 244 -3 28
-21 89 -40 136 -19 47 -40 110 -47 140 -22 95 -54 147 -108 174 -46 23 -73 30
-221 61 -76 16 -134 42 -211 94 -44 30 -70 39 -70 23z"/>
<path d="M5747 12453 c16 -76 8 -214 -16 -288 -51 -153 -199 -426 -399 -734
-23 -35 -39 -68 -36 -73 9 -14 21 1 94 117 193 304 304 509 355 660 32 94 44
244 26 313 -15 53 -35 57 -24 5z"/>
<path d="M5956 12308 c-4 -29 -19 -86 -33 -126 -13 -41 -22 -76 -18 -80 10
-10 23 17 44 88 30 101 41 170 26 170 -7 0 -15 -21 -19 -52z"/>
<path d="M6620 12130 c0 -30 56 -92 161 -176 165 -132 201 -202 144 -285 -31
-43 -96 -81 -185 -105 -112 -30 -232 -102 -261 -156 -21 -39 1 -30 59 24 61
56 107 79 239 117 88 26 149 71 181 134 23 43 24 50 12 92 -16 57 -68 116
-174 199 -46 36 -105 89 -130 118 -25 29 -46 46 -46 38z"/>
<path d="M7450 8326 c0 -3 36 -83 79 -178 95 -209 128 -299 187 -522 79 -296
125 -423 192 -531 24 -39 32 -46 37 -33 4 10 -2 29 -14 47 -59 82 -106 214
-202 564 -33 122 -76 260 -96 307 -59 143 -161 350 -172 350 -6 0 -11 -2 -11
-4z"/>
<path d="M7205 7683 c-3 -54 -17 -166 -31 -250 -23 -148 -23 -154 -8 -265 30
-214 151 -685 285 -1108 43 -134 54 -159 66 -147 4 4 -12 65 -35 135 -106 325
-247 857 -283 1074 l-23 137 23 158 c27 186 39 363 24 363 -6 0 -14 -42 -18
-97z"/>
</g>
</svg>
